<?xml version="1.0" encoding="UTF-8"?>
<svg id="Layer_2" data-name="Layer 2" xmlns="http://www.w3.org/2000/svg" viewBox="0 0 32.38 30.85">
  <defs>
    <style>
      .cls-1 {
        fill: #00bfff;
        stroke: #1a1f2e;
        stroke-miterlimit: 10;
        stroke-width: .25px;
      }
    </style>
  </defs>
  <g id="Layer_1-2" data-name="Layer 1">
    <g id="SVGRepo_iconCarrier" data-name="SVGRepo iconCarrier">
      <path class="cls-1" d="M17.12.15c-.48.46-1.96,1.04-1.96,1.04-5.14-.24-7.72,3.91-7.72,3.91,0,0-.2.14-.15-1.27-2.02,1.92-1.3,3.04-1.7,3.88-.48-.31-.57-.62-.73-1.11-.22.33-.26,1.03.14,2.44C-1.46,14.49.36,18.83.36,18.83c0,0,1.05-2.09,3.05-3.64,1.21-.93,4.59-2.03,5.57-2.44.95-.29,1.68-.74,2.18-1.14.59-.45.77-.99,1.2-1.32.32-.25.88-.33,1.19-.35.57-.03,1.07,0,1.63.16-.57.2-.82.08-1.9.45-1.08.38-1.16,1.74-2.34,2.1-1.52.47-4.8,1.65-5.93,2.26-.96.52-1.51.72-2.98,2.67,4.31-.31,7.62-1.98,8.76-2.39-.46.39-1.45,2.29-1.32,3.34.13-.2.39-.35,1.34-.92-1.07,1.06-1.62,4.85-1.22,5.63.31-.66.5-1.4.95-1.71.1,1.49.73,2.79,1.81,3.34-.38-.85.31-4.91.94-6.64.02,1.14.71,2.62,1.18,3.12.38-.61.78-2.21.84-2.76-.04-.31-.73-1.42-1.07-1.9.45.21.7.52,1.15,1.03.22-.32.23-1.14.32-3.09,1.15,3.95-1.23,8.21-1.23,8.21-.46-.68-.72-1.03-1.21-2.26-.43.76-.78,3.39.14,5.35.78,1.67,3.25,3.78,4.58,4.57-.45-.98-.79-1.54-.99-2.35,0,0,.61.49,1.06.39-.76-.98-1.29-3.38-1.16-4.26.23.27.26.57.81,1-.59-1.57.22-4.15.68-5.02.19.13.3.93.45,1.8.17,1.01.07,1.53.22,2.96.15-.09,1.25-1.91,1.53-2.66.28-.76.47-2.07.54-3.16.38.5.58,1.19.77,2.86,0,1.52-.68,3.54-.07,4.9.97-.71,2.28-3.76,2.28-3.76.06,0-.15-.55-.88-1.78.62.24,1.29.84,1.29.84l.34-1.27s-.84-1.03-1.84-1.87c.66.14,1.37.59,2.11,1.11.35-.63.16-2.73-.32-4.06.44.63.73,1.09,1.25,1.42.29-.31.83-3.32.68-4.31-1.09-.54-1.75-1.24-2.18-1.94.82.32,1.15.55,2.1,1.17-.18-1.4-1.06-2.26-1.06-2.26,0,0,1.75.95,3,1.2s3.44-.17,3.44-.17c0,0-1.38-.77-2.56-1.44-1.12.36-1.4.34-2.14-.13.51.04.96-.05,1.42-.4-.9-.57-1-1.05-1-1.05,1.13,0,1.7-.13,2.21-.98-.64.13-2.38.22-3.45-.56-1.92-1.41-4.59-1.48-4.59-1.48l2.48,3.65c-.67.31-1.83.29-3.8-.4.41.69.5,1.04.59,2.59-.54-2.15-1.35-2.48-1.79-3.59,2.35,1.05,3.97.91,3.97.91,0,0-.17-.37-.41-.77-.68-.02-1.63-.79-1.63-.79,0,0,.64-.01,1.04-.11-.58-.52-.91-.91-1.63-2.34,1.94-.14,3.89.63,5.56,1.72-.45-1.31-4.14-3.59-6.49-3.73.39-.25.98-1.13.93-1.9-1.52.81-3.28.76-3.28.76,0,0,.08-.91-.34-1.1h0ZM11.56,4.82c-.23.28-.68.62-.66.84s.79.43.81,1.02c.02.81-.2.96-.82,1.34.35.07.58-.03.84-.11l.39-.12s-.25.41-1.08.74c-.86.16-1.55.03-1.93-.09-.25.11-.59.27-.84.2-.26-.07-.81-.28-1.1-.78,0,0,1.43.16,2.1-.38.57-.44.8-1.18,1.24-1.75.31-.4.65-.72,1.05-.91h0ZM6.16,9.72c.18,0,.39.03.72.12.01.12-.28.32-.82.71-.31-.15-.38-.73-.38-.73.16-.05.3-.09.47-.09h0Z"/>
    </g>
  </g>
</svg>